<?xml version="1.0" encoding="UTF-8"?>
<svg xmlns="http://www.w3.org/2000/svg" width="230" height="67" viewBox="0 0 230 67" fill="none">
  <g clip-path="url(#clip0_400_5079)">
    <path d="M53.3382 12.707L40.8779 42.7376H47.3238L57.2064 19.1368L64.5115 36.735L66.8752 42.7376H73.3174L60.8572 12.707H53.3382Z" fill="white"></path>
    <mask id="mask0_400_5079" style="mask-type:luminance" maskUnits="userSpaceOnUse" x="40" y="12" width="34" height="31">
      <path d="M53.3382 12.707L40.8779 42.7376H47.3238L57.2064 19.1368L64.5115 36.735L66.8752 42.7376H73.3174L60.8572 12.707H53.3382Z" fill="white"></path>
    </mask>
    <g mask="url(#mask0_400_5079)">
      <path d="M73.3174 12.707H40.8779V42.7411H73.3174V12.707Z" fill="white"></path>
    </g>
    <path d="M96.7946 12.707V33.2994H96.5843L81.7603 12.707H75.3145V42.7376H81.3289V22.1416H81.5464L96.3704 42.7376H102.805V12.707H96.7946Z" fill="white"></path>
    <mask id="mask1_400_5079" style="mask-type:luminance" maskUnits="userSpaceOnUse" x="75" y="12" width="28" height="31">
      <path d="M96.7946 12.707V33.2994H96.5843L81.7603 12.707H75.3145V42.7376H81.3289V22.1416H81.5464L96.3704 42.7376H102.805V12.707H96.7946Z" fill="white"></path>
    </mask>
    <g mask="url(#mask1_400_5079)">
      <path d="M102.805 12.707H75.3145V42.7411H102.805V12.707Z" fill="white"></path>
    </g>
    <path d="M107.065 12.707V17.6344H117.379V42.7376H123.394V17.6344H133.701V12.707H107.065Z" fill="white"></path>
    <mask id="mask2_400_5079" style="mask-type:luminance" maskUnits="userSpaceOnUse" x="107" y="12" width="27" height="31">
      <path d="M107.065 12.707V17.6344H117.379V42.7376H123.394V17.6344H133.701V12.707H107.065Z" fill="white"></path>
    </mask>
    <g mask="url(#mask2_400_5079)">
      <path d="M133.701 12.707H107.065V42.7411H133.701V12.707Z" fill="white"></path>
    </g>
    <path d="M137.958 12.707V42.7376H162.447V37.8067H143.972V30.2946H150.757V25.3601H143.972V17.6344H162.016V12.707H137.958Z" fill="white"></path>
    <mask id="mask3_400_5079" style="mask-type:luminance" maskUnits="userSpaceOnUse" x="137" y="12" width="26" height="31">
      <path d="M137.958 12.707V42.7376H162.447V37.8067H143.972V30.2946H150.757V25.3601H143.972V17.6344H162.016V12.707H137.958Z" fill="white"></path>
    </mask>
    <g mask="url(#mask3_400_5079)">
      <path d="M162.447 12.707H137.958V42.7411H162.447V12.707Z" fill="white"></path>
    </g>
    <path d="M173.107 17.6344H180.836C184.926 17.6344 187.072 19.7705 187.072 22.5724C187.072 24.9257 184.933 27.5069 180.836 27.5069H173.107V17.6344ZM167.082 12.707V42.7233H173.107V32.4343H181.485L188.576 42.7233H195.664L187.71 31.3626V31.1526C187.71 31.1526 193.3 29.0165 193.3 22.5724C193.3 16.9936 188.997 12.707 180.822 12.707H167.082Z" fill="white"></path>
    <mask id="mask4_400_5079" style="mask-type:luminance" maskUnits="userSpaceOnUse" x="167" y="12" width="29" height="31">
      <path d="M173.107 17.6344H180.836C184.926 17.6344 187.072 19.7705 187.072 22.5724C187.072 24.9257 184.933 27.5069 180.836 27.5069H173.107V17.6344ZM167.082 12.707V42.7233H173.107V32.4343H181.485L188.576 42.7233H195.664L187.71 31.3626V31.1526C187.71 31.1526 193.3 29.0165 193.3 22.5724C193.3 16.9936 188.997 12.707 180.822 12.707H167.082Z" fill="white"></path>
    </mask>
    <g mask="url(#mask4_400_5079)">
      <path d="M195.664 12.707H167.082V42.7411H195.664V12.707Z" fill="white"></path>
    </g>
    <path d="M209.115 12.707L196.647 42.7376H203.09L212.762 19.1368L220.281 36.735L222.641 42.7376H229.087L216.627 12.707H209.115Z" fill="white"></path>
    <mask id="mask5_400_5079" style="mask-type:luminance" maskUnits="userSpaceOnUse" x="196" y="12" width="34" height="31">
      <path d="M209.115 12.707L196.647 42.7376H203.09L212.762 19.1368L220.281 36.735L222.641 42.7376H229.087L216.627 12.707H209.115Z" fill="white"></path>
    </mask>
    <g mask="url(#mask5_400_5079)">
      <path d="M229.083 12.707H196.647V42.7411H229.083V12.707Z" fill="white"></path>
    </g>
    <path d="M206.755 49.7109L199.617 66.9069H203.304L208.844 53.3922L213.151 63.4677L214.502 66.9069H218.192L211.058 49.7109H206.755Z" fill="white"></path>
    <mask id="mask6_400_5079" style="mask-type:luminance" maskUnits="userSpaceOnUse" x="199" y="49" width="20" height="18">
      <path d="M206.755 49.7109L199.617 66.9069H203.304L208.844 53.3922L213.151 63.4677L214.502 66.9069H218.192L211.058 49.7109H206.755Z" fill="white"></path>
    </mask>
    <g mask="url(#mask6_400_5079)">
      <path d="M218.192 49.7109H199.617V66.9104H218.192V49.7109Z" fill="white"></path>
    </g>
    <path d="M150.66 58.2625C150.674 59.4399 150.459 60.6088 150.029 61.7052C149.631 62.7207 149.024 63.6413 148.247 64.4074C147.454 65.1814 146.513 65.787 145.48 66.1875C144.335 66.6195 143.118 66.8309 141.894 66.8106H135.319V49.7215H141.894C143.117 49.7062 144.333 49.9224 145.477 50.3587C146.511 50.7566 147.453 51.3625 148.243 52.1389C149.019 52.9059 149.626 53.8262 150.026 54.8411C150.456 55.9301 150.671 57.0918 150.66 58.2625ZM147.027 58.2625C147.037 57.444 146.917 56.6293 146.671 55.8486C146.462 55.1815 146.117 54.5646 145.658 54.0365C145.214 53.5392 144.663 53.1486 144.047 52.8936C143.368 52.6177 142.641 52.4808 141.908 52.4913H138.888V64.0443H141.894C142.626 64.0553 143.353 63.921 144.033 63.6491C144.65 63.3967 145.202 63.0056 145.644 62.5063C146.102 61.9749 146.447 61.3559 146.657 60.687C146.909 59.9037 147.034 59.0852 147.027 58.2625Z" fill="white"></path>
    <path d="M157.841 66.8118H154.275V49.7227H157.841V66.8118Z" fill="white"></path>
    <path d="M170.771 58.1101H176.643V65.1522C175.8 65.7727 174.857 66.2448 173.855 66.5478C172.838 66.847 171.782 66.9957 170.722 66.9893C169.419 67.0081 168.125 66.786 166.903 66.3342C165.815 65.9329 164.82 65.3138 163.98 64.5149C163.167 63.735 162.528 62.7923 162.104 61.7486C161.655 60.6383 161.431 59.45 161.445 58.2525C161.432 57.0499 161.645 55.8556 162.072 54.7314C162.472 53.6969 163.086 52.7581 163.873 51.9758C164.68 51.1884 165.642 50.5753 166.696 50.1743C167.881 49.7286 169.139 49.5088 170.404 49.5264C171.069 49.5225 171.732 49.5797 172.386 49.6973C172.966 49.8014 173.534 49.96 174.083 50.1708C174.581 50.3605 175.059 50.599 175.51 50.8828C175.93 51.1479 176.325 51.4506 176.69 51.7871L175.663 53.3643C175.598 53.4796 175.51 53.5803 175.405 53.66C175.299 53.7397 175.178 53.7966 175.05 53.8271C174.761 53.8722 174.466 53.8046 174.226 53.6384C173.941 53.464 173.666 53.3109 173.392 53.172C173.112 53.0321 172.823 52.9131 172.525 52.816C172.199 52.7095 171.864 52.6309 171.524 52.581C171.11 52.5235 170.693 52.4961 170.276 52.4992C169.535 52.4875 168.8 52.628 168.115 52.9121C167.489 53.1751 166.928 53.5726 166.472 54.0763C166.002 54.6051 165.645 55.2242 165.424 55.8956C165.173 56.6593 165.053 57.4596 165.067 58.2632C165.053 59.1213 165.188 59.9754 165.466 60.7874C165.707 61.487 166.093 62.1278 166.6 62.6672C167.09 63.1796 167.688 63.5771 168.351 63.8314C169.564 64.2724 170.879 64.3528 172.137 64.0628C172.584 63.9468 173.019 63.7907 173.438 63.5964V60.7233H171.484C171.288 60.735 171.095 60.6699 170.946 60.5417C170.883 60.482 170.833 60.4095 170.8 60.3291C170.767 60.2487 170.751 60.1622 170.754 60.0753L170.771 58.1101Z" fill="white"></path>
    <path d="M184.098 66.8118H180.533V49.7227H184.098V66.8118Z" fill="white"></path>
    <path d="M200.804 52.5767H195.813V66.8176H192.248V52.5767H187.257V49.7285H200.804V52.5767Z" fill="white"></path>
    <path d="M230 63.9387V66.8118H219.847V49.7227H223.387V63.9351L230 63.9387Z" fill="white"></path>
    <path d="M33.9623 27.289C33.963 25.9777 33.5742 24.6957 32.8452 23.605C32.1162 22.5144 31.0797 21.6642 29.8668 21.1619C28.6538 20.6596 27.319 20.5278 26.031 20.7832C24.7431 21.0386 23.5599 21.6697 22.6311 22.5966C21.7024 23.5236 21.0698 24.7048 20.8134 25.9908C20.5569 27.2768 20.6882 28.6099 21.1905 29.8214C21.6929 31.033 22.5437 32.0685 23.6355 32.7971C24.7272 33.5257 26.0108 33.9146 27.3239 33.9146C29.0839 33.9146 30.7718 33.2166 32.0167 31.9742C33.2615 30.7317 33.9613 29.0465 33.9623 27.289Z" fill="#D63B43"></path>
    <path d="M32.5967 36.1042C31.0354 37.0393 29.2535 37.5439 27.433 37.5666C25.6125 37.5893 23.8186 37.1292 22.2344 36.2333C20.6502 35.3374 19.3324 34.0377 18.4155 32.467C17.4986 30.8962 17.0156 29.1107 17.0156 27.2926C17.0156 25.4745 17.4986 23.6889 18.4155 22.1182C19.3324 20.5475 20.6502 19.2478 22.2344 18.3519C23.8186 17.456 25.6125 16.9959 27.433 17.0186C29.2535 17.0412 31.0354 17.5459 32.5967 18.481L37.9302 9.50567C34.7837 7.634 31.1967 6.6283 27.5344 6.59092C23.8722 6.55355 20.2654 7.48585 17.0812 9.29292C13.897 11.1 11.2492 13.7173 9.40715 16.8784C7.56513 20.0396 6.59473 23.6317 6.59473 27.289C6.59473 30.9464 7.56513 34.5385 9.40715 37.6996C11.2492 40.8608 13.897 43.4781 17.0812 45.2851C20.2654 47.0922 23.8722 48.0245 27.5344 47.9871C31.1967 47.9498 34.7837 46.9441 37.9302 45.0724L32.5967 36.1042Z" fill="white"></path>
    <path d="M27.3235 54.5748C20.1305 54.4927 13.2599 51.5817 8.20246 46.4732C3.14501 41.3648 0.308594 34.4709 0.308594 27.2874C0.308594 20.1038 3.14501 13.21 8.20246 8.10155C13.2599 2.99309 20.1305 0.0820495 27.3235 0C27.4928 0 27.6551 0.067142 27.7748 0.186655C27.8944 0.306169 27.9617 0.468264 27.9617 0.637281C27.9617 0.806299 27.8944 0.968394 27.7748 1.08791C27.6551 1.20742 27.4928 1.27456 27.3235 1.27456C20.4677 1.35466 13.9199 4.13055 9.1002 9.0002C4.28051 13.8698 1.57755 20.4406 1.57755 27.2874C1.57755 34.1342 4.28051 40.7049 9.1002 45.5746C13.9199 50.4442 20.4677 53.2201 27.3235 53.3002C27.4928 53.3002 27.6551 53.3674 27.7748 53.4869C27.8944 53.6064 27.9617 53.7685 27.9617 53.9375C27.9617 54.1065 27.8944 54.2686 27.7748 54.3881C27.6551 54.5077 27.4928 54.5748 27.3235 54.5748Z" fill="#D63B43"></path>
  </g>
  <defs>
    <clipPath id="clip0_400_5079">
      <rect width="230" height="67" fill="white"></rect>
    </clipPath>
  </defs>
</svg>
